<?xml version="1.0" standalone="no"?>
<?xml-stylesheet href="../css/svg.css" type="text/css"?>
<!DOCTYPE svg PUBLIC "-//W3C//DTD SVG 1.1//EN" "http://www.w3.org/Graphics/SVG/1.1/DTD/svg11.dtd">
<svg xmlns="http://www.w3.org/2000/svg" version="1.1" viewBox='0 0 200 200'>
<line class="strokeBlack strokeNormal fillNone" x1="-123.61380000000001" y1="-21.768" x2="27.942999999999984" y2="240.7365"/>
<line class="strokeBlack strokeNormal fillNone" x1="-116.5458" y1="-21.768" x2="35.010999999999996" y2="240.7365"/>
<line class="strokeBlack strokeNormal fillNone" x1="-109.47879999999999" y1="-21.768" x2="42.078" y2="240.7365"/>
<line class="strokeBlack strokeNormal fillNone" x1="-102.4108" y1="-21.768" x2="49.146" y2="240.7365"/>
<line class="strokeBlack strokeNormal fillNone" x1="-95.3438" y1="-21.768" x2="56.212999999999994" y2="240.7365"/>
<line class="strokeBlack strokeNormal fillNone" x1="-88.2768" y1="-21.768" x2="63.28" y2="240.7365"/>
<line class="strokeBlack strokeNormal fillNone" x1="-81.2092" y1="-21.768" x2="70.3476" y2="240.7365"/>
<line class="strokeBlack strokeNormal fillNone" x1="-74.1418" y1="-21.768" x2="77.41499999999999" y2="240.7365"/>
<line class="strokeBlack strokeNormal fillNone" x1="-67.0745" y1="-21.768" x2="84.4823" y2="240.7365"/>
<line class="strokeBlack strokeNormal fillNone" x1="-60.007099999999994" y1="-21.768" x2="91.5497" y2="240.7365"/>
<line class="strokeBlack strokeNormal fillNone" x1="-52.9397" y1="-21.768" x2="98.6171" y2="240.7365"/>
<line class="strokeBlack strokeNormal fillNone" x1="-45.8724" y1="-21.768" x2="105.6844" y2="240.7365"/>
<line class="strokeBlack strokeNormal fillNone" x1="-38.805" y1="-21.768" x2="112.7518" y2="240.7365"/>
<line class="strokeBlack strokeNormal fillNone" x1="-31.7376" y1="-21.768" x2="119.8192" y2="240.7365"/>
<line class="strokeBlack strokeNormal fillNone" x1="-24.670299999999997" y1="-21.768" x2="126.8865" y2="240.7365"/>
<line class="strokeBlack strokeNormal fillNone" x1="-17.602899999999998" y1="-21.768" x2="133.9539" y2="240.7365"/>
<line class="strokeBlack strokeNormal fillNone" x1="-10.535499999999999" y1="-21.768" x2="141.0213" y2="240.7365"/>
<line class="strokeBlack strokeNormal fillNone" x1="-3.4681999999999995" y1="-21.768" x2="148.08859999999999" y2="240.7365"/>
<line class="strokeBlack strokeNormal fillNone" x1="3.5991999999999997" y1="-21.768" x2="155.156" y2="240.7365"/>
<line class="strokeBlack strokeNormal fillNone" x1="10.66658" y1="-21.768" x2="162.22338" y2="240.7365"/>
<line class="strokeBlack strokeNormal fillNone" x1="17.7339109" y1="-21.768" x2="169.2907109" y2="240.7365"/>
<line class="strokeBlack strokeNormal fillNone" x1="24.80131" y1="-21.768" x2="176.35810999999998" y2="240.7365"/>
<line class="strokeBlack strokeNormal fillNone" x1="31.8687" y1="-21.768" x2="183.4255" y2="240.7365"/>
<line class="strokeBlack strokeNormal fillNone" x1="38.936" y1="-21.768" x2="190.4928" y2="240.7365"/>
<line class="strokeBlack strokeNormal fillNone" x1="46.0034" y1="-21.768" x2="197.5602" y2="240.7365"/>
<line class="strokeBlack strokeNormal fillNone" x1="53.0708" y1="-21.768" x2="204.6276" y2="240.7365"/>
<line class="strokeBlack strokeNormal fillNone" x1="60.1381" y1="-21.768" x2="211.6949" y2="240.7365"/>
<line class="strokeBlack strokeNormal fillNone" x1="67.2055" y1="-21.768" x2="218.76229999999998" y2="240.7365"/>
<line class="strokeBlack strokeNormal fillNone" x1="74.27289999999999" y1="-21.768" x2="225.8297" y2="240.7365"/>
<line class="strokeBlack strokeNormal fillNone" x1="81.34020000000001" y1="-21.768" x2="232.897" y2="240.7365"/>
<line class="strokeBlack strokeNormal fillNone" x1="88.4076" y1="-21.768" x2="239.9644" y2="240.7365"/>
<line class="strokeBlack strokeNormal fillNone" x1="95.475" y1="-21.768" x2="247.03179999999998" y2="240.7365"/>
<line class="strokeBlack strokeNormal fillNone" x1="102.5423" y1="-21.768" x2="254.0991" y2="240.7365"/>
<line class="strokeBlack strokeNormal fillNone" x1="109.6097" y1="-21.768" x2="261.1665" y2="240.7365"/>
<line class="strokeBlack strokeNormal fillNone" x1="116.6771" y1="-21.768" x2="268.2339" y2="240.7365"/>
<line class="strokeBlack strokeNormal fillNone" x1="123.7442" y1="-21.768" x2="275.301" y2="240.7365"/>
<line class="strokeBlack strokeNormal fillNone" x1="130.81220000000002" y1="-21.768" x2="282.369" y2="240.7365"/>
<line class="strokeBlack strokeNormal fillNone" x1="137.8792" y1="-21.768" x2="289.436" y2="240.7365"/>
<line class="strokeBlack strokeNormal fillNone" x1="144.9462" y1="-21.768" x2="296.503" y2="240.7365"/>
<line class="strokeBlack strokeNormal fillNone" x1="152.01420000000002" y1="-21.768" x2="303.571" y2="240.7365"/>
<line class="strokeBlack strokeNormal fillNone" x1="159.08120000000002" y1="-21.768" x2="310.63800000000003" y2="240.7365"/>
<line class="strokeBlack strokeNormal fillNone" x1="166.14819999999997" y1="-21.768" x2="317.705" y2="240.7365"/>
<line class="strokeBlack strokeNormal fillNone" x1="173.21620000000001" y1="-21.768" x2="324.773" y2="240.7365"/>
<line class="strokeBlack strokeNormal fillNone" x1="180.28320000000002" y1="-21.768" x2="331.84000000000003" y2="240.7365"/>
<line class="strokeBlack strokeNormal fillNone" x1="187.3512" y1="-21.768" x2="338.908" y2="240.7365"/>
<line class="strokeBlack strokeNormal fillNone" x1="194.4182" y1="-21.768" x2="345.975" y2="240.7365"/>
</svg>